<svg xmlns="http://www.w3.org/2000/svg" width="32" height="32" viewBox="0 0 32 32" fill="none">
  <rect width="32" height="32" rx="4" fill="#00B307"/>
  <path d="M16 6C13.8 6 12 7.8 12 10C12 12.2 13.8 14 16 14C18.2 14 20 12.2 20 10C20 7.8 18.2 6 16 6Z" fill="#ffffff"/>
  <path d="M16 15C13 15 10 16.1 10 19V22C10 22.6 10.4 23 11 23H21C21.6 23 22 22.6 22 22V19C22 16.1 19 15 16 15Z" fill="#ffffff"/>
  <path d="M24 10C23.3 10 22.7 10.1 22.2 10.4C22.7 11.1 23 11.8 23 12.5V14H26C26.6 14 27 13.6 27 13V12C27 10.9 25.6 10 24 10Z" fill="#ffffff"/>
  <path d="M8 10C6.4 10 5 10.9 5 12V13C5 13.6 5.4 14 6 14H9V12.5C9 11.8 9.3 11.1 9.8 10.4C9.3 10.1 8.7 10 8 10Z" fill="#ffffff"/>
</svg>